<svg xmlns="http://www.w3.org/2000/svg" width="20" height="16" viewBox="0 0 20 16">
  <metadata><?xpacket begin="﻿" id="W5M0MpCehiHzreSzNTczkc9d"?>
<x:xmpmeta xmlns:x="adobe:ns:meta/" x:xmptk="Adobe XMP Core 5.6-c140 79.160451, 2017/05/06-01:08:21        ">
   <rdf:RDF xmlns:rdf="http://www.w3.org/1999/02/22-rdf-syntax-ns#">
      <rdf:Description rdf:about=""/>
   </rdf:RDF>
</x:xmpmeta>
                                                                                                    
                                                                                                    
                                                                                                    
                                                                                                    
                                                                                                    
                                                                                                    
                                                                                                    
                                                                                                    
                                                                                                    
                                                                                                    
                                                                                                    
                                                                                                    
                                                                                                    
                                                                                                    
                                                                                                    
                                                                                                    
                                                                                                    
                                                                                                    
                                                                                                    
                                                                                                    
                           
<?xpacket end="w"?></metadata>
<defs>
    <style>
      .cls-1 {
        fill: #fff;
        fill-rule: evenodd;
      }
    </style>
  </defs>
  <path id="T_logo" class="cls-1" d="M456.282,748a11.5,11.5,0,0,0,11.677-11.489c0-.173,0-0.346-0.008-0.519A8.293,8.293,0,0,0,470,733.9a8.407,8.407,0,0,1-2.361.638,4.075,4.075,0,0,0,1.809-2.236,8.241,8.241,0,0,1-2.609.976A4.131,4.131,0,0,0,463.845,732a4.076,4.076,0,0,0-4.105,4.039,4.391,4.391,0,0,0,.1.921,11.714,11.714,0,0,1-8.459-4.22,3.978,3.978,0,0,0-.553,2.031,4.035,4.035,0,0,0,1.825,3.363,4.2,4.2,0,0,1-1.857-.5v0.056a4.063,4.063,0,0,0,3.29,3.96,4.052,4.052,0,0,1-1.081.142,4.116,4.116,0,0,1-.768-0.071,4.094,4.094,0,0,0,3.833,2.8,8.313,8.313,0,0,1-5.1,1.733A8.094,8.094,0,0,1,450,746.2a11.822,11.822,0,0,0,6.282,1.8" transform="translate(-450 -732)"/>
</svg>
