<svg xmlns="http://www.w3.org/2000/svg" width="26" height="21" viewBox="0 0 26 21">
  <metadata><?xpacket begin="﻿" id="W5M0MpCehiHzreSzNTczkc9d"?>
<x:xmpmeta xmlns:x="adobe:ns:meta/" x:xmptk="Adobe XMP Core 5.6-c140 79.160451, 2017/05/06-01:08:21        ">
   <rdf:RDF xmlns:rdf="http://www.w3.org/1999/02/22-rdf-syntax-ns#">
      <rdf:Description rdf:about=""/>
   </rdf:RDF>
</x:xmpmeta>
                                                                                                    
                                                                                                    
                                                                                                    
                                                                                                    
                                                                                                    
                                                                                                    
                                                                                                    
                                                                                                    
                                                                                                    
                                                                                                    
                                                                                                    
                                                                                                    
                                                                                                    
                                                                                                    
                                                                                                    
                                                                                                    
                                                                                                    
                                                                                                    
                                                                                                    
                                                                                                    
                           
<?xpacket end="w"?></metadata>
<defs>
    <style>
      .cls-1 {
        fill: #242424;
        fill-rule: evenodd;
      }
    </style>
  </defs>
  <path id="Logo_Twitter" class="cls-1" d="M803.178,60.991a15.026,15.026,0,0,0,15.181-15.084q0-.344-0.015-0.686a10.81,10.81,0,0,0,2.661-2.744,10.735,10.735,0,0,1-3.064.834,5.324,5.324,0,0,0,2.346-2.933,10.76,10.76,0,0,1-3.388,1.287,5.329,5.329,0,0,0-9.092,4.834,15.176,15.176,0,0,1-11-5.538,5.282,5.282,0,0,0,1.652,7.078,5.323,5.323,0,0,1-2.417-.664c0,0.021,0,.045,0,0.067a5.312,5.312,0,0,0,4.28,5.2,5.325,5.325,0,0,1-1.406.187,5.458,5.458,0,0,1-1-.095,5.338,5.338,0,0,0,4.984,3.682,10.751,10.751,0,0,1-6.626,2.269A11.041,11.041,0,0,1,795,58.61a15.175,15.175,0,0,0,8.178,2.381" transform="translate(-795 -40)"/>
</svg>
