<svg xmlns="http://www.w3.org/2000/svg" width="22" height="22" viewBox="0 0 22 22">
  <metadata><?xpacket begin="﻿" id="W5M0MpCehiHzreSzNTczkc9d"?>
<x:xmpmeta xmlns:x="adobe:ns:meta/" x:xmptk="Adobe XMP Core 5.6-c140 79.160451, 2017/05/06-01:08:21        ">
   <rdf:RDF xmlns:rdf="http://www.w3.org/1999/02/22-rdf-syntax-ns#">
      <rdf:Description rdf:about=""/>
   </rdf:RDF>
</x:xmpmeta>
                                                                                                    
                                                                                                    
                                                                                                    
                                                                                                    
                                                                                                    
                                                                                                    
                                                                                                    
                                                                                                    
                                                                                                    
                                                                                                    
                                                                                                    
                                                                                                    
                                                                                                    
                                                                                                    
                                                                                                    
                                                                                                    
                                                                                                    
                                                                                                    
                                                                                                    
                                                                                                    
                           
<?xpacket end="w"?></metadata>
<defs>
    <style>
      .cls-1 {
        fill: #242424;
        fill-rule: evenodd;
      }
    </style>
  </defs>
  <path id="Logo_Instagram" class="cls-1" d="M877,40.975c2.937,0,3.284.012,4.444,0.065a6.1,6.1,0,0,1,2.042.378,3.639,3.639,0,0,1,2.087,2.089,6.075,6.075,0,0,1,.379,2.043c0.053,1.16.064,1.507,0.064,4.444s-0.011,3.285-.064,4.446a6.067,6.067,0,0,1-.379,2.041,3.645,3.645,0,0,1-2.087,2.089,6.114,6.114,0,0,1-2.042.378c-1.16.053-1.507,0.064-4.444,0.064s-3.285-.011-4.444-0.064a6.122,6.122,0,0,1-2.043-.378,3.652,3.652,0,0,1-2.087-2.089,6.067,6.067,0,0,1-.379-2.041c-0.052-1.161-.064-1.508-0.064-4.446s0.012-3.284.064-4.444a6.075,6.075,0,0,1,.379-2.043,3.646,3.646,0,0,1,2.087-2.089,6.112,6.112,0,0,1,2.043-.378c1.16-.053,1.507-0.065,4.444-0.065m0-1.981c-2.987,0-3.362.013-4.535,0.066a8.077,8.077,0,0,0-2.669.511,5.631,5.631,0,0,0-3.217,3.218,8.064,8.064,0,0,0-.511,2.67c-0.054,1.174-.066,1.549-0.066,4.535s0.012,3.363.066,4.536a8.053,8.053,0,0,0,.511,2.669,5.62,5.62,0,0,0,3.217,3.218,8.059,8.059,0,0,0,2.669.512c1.173,0.053,1.548.066,4.535,0.066s3.361-.013,4.534-0.066a8.066,8.066,0,0,0,2.67-.512A5.62,5.62,0,0,0,887.42,57.2a8.1,8.1,0,0,0,.511-2.669c0.053-1.173.066-1.547,0.066-4.536s-0.013-3.361-.066-4.535a8.116,8.116,0,0,0-.511-2.67,5.631,5.631,0,0,0-3.217-3.218,8.083,8.083,0,0,0-2.67-.511c-1.173-.053-1.547-0.066-4.534-0.066h0Zm0,5.351a5.649,5.649,0,1,0,5.648,5.649A5.649,5.649,0,0,0,877,44.345Zm0,9.316a3.667,3.667,0,1,1,3.666-3.667A3.667,3.667,0,0,1,877,53.661Zm7.19-9.539a1.32,1.32,0,1,1-1.319-1.32A1.32,1.32,0,0,1,884.189,44.121Z" transform="translate(-866 -39)"/>
</svg>
